<svg xmlns="http://www.w3.org/2000/svg" width="48" height="48" viewBox="0 0 1200 1200">
    <path fill-rule="nonzero" fill="#000"
        d="M167.375,969V638.688H470.593v-70.86H167.375V311.5H523.734V239.594H79.843V969h87.532ZM961.2,951.281q46.875-30.21,71.887-67.718L1041.44,969h79.19V218.766h-87.54v319.89q-27.09-46.875-76.059-72.937T844.5,439.656q-78.164,0-135.469,34.922t-89.609,95.86q-32.3,60.96-32.3,139.109t31.781,139.625q31.782,61.476,89.61,96.906,57.821,35.415,134.937,35.422Q914.305,981.5,961.2,951.281ZM761.656,880.953q-40.125-24.468-62.515-68.25-22.407-43.758-22.407-102.125,0-58.335,22.407-102.109,22.405-43.758,62.515-68.25,40.125-24.47,91.172-24.485,52.1,0,92.219,24.485t62.513,68.25q22.41,43.78,22.41,102.109,0,58.359-22.41,102.125-22.4,43.782-62.513,68.25-40.125,24.492-92.219,24.485Q801.782,905.438,761.656,880.953Z" />
</svg>