<?xml version="1.0" standalone="no"?>
<!DOCTYPE svg PUBLIC "-//W3C//DTD SVG 20010904//EN"
 "http://www.w3.org/TR/2001/REC-SVG-20010904/DTD/svg10.dtd">
<svg version="1.0" xmlns="http://www.w3.org/2000/svg"
 width="512.000000pt" height="512.000000pt" viewBox="0 0 512.000000 512.000000"
 preserveAspectRatio="xMidYMid meet">
<metadata>
Created by potrace 1.14, written by Peter Selinger 2001-2017
</metadata>
<g transform="translate(0.000000,512.000000) scale(0.100000,-0.100000)"
fill="#000000" stroke="none">
<path d="M303 5090 c-109 -25 -213 -114 -255 -218 l-23 -57 0 -2260 0 -2260
26 -56 c49 -104 132 -176 235 -203 52 -13 317 -15 2276 -15 2414 0 2277 -4
2370 55 59 37 103 87 135 153 l28 56 0 2275 0 2275 -28 57 c-36 73 -100 137
-174 174 l-58 29 -2250 1 c-1237 1 -2264 -2 -2282 -6z m4137 -1149 l35 -1 -2
-1342 c0 -739 -1 -1350 -2 -1358 -1 -14 -26 -16 -179 -16 l-179 0 -18 126
c-10 69 -19 132 -21 140 -1 8 -3 17 -3 20 -1 2 -9 -7 -18 -20 -49 -71 -163
-171 -254 -223 -52 -30 -139 -62 -202 -74 -54 -10 -299 -10 -352 -1 -36 7 -76
15 -82 17 -2 1 -5 1 -8 1 -15 0 -128 47 -175 73 -349 186 -539 606 -474 1048
58 397 300 681 665 781 72 20 107 23 249 23 143 0 176 -3 245 -24 164 -48 303
-143 381 -260 14 -23 27 -41 28 -41 0 0 0 253 -2 562 -1 335 1 564 7 567 7 5
205 6 361 2z m-2164 -83 c3 -5 6 -35 6 -66 -1 -31 -1 -101 -1 -155 l-1 -97
-242 0 c-134 1 -417 1 -629 0 l-386 0 1 -415 0 -415 45 -1 c25 0 260 0 521 0
l475 0 -1 -147 c-1 -81 -2 -154 -3 -162 -1 -13 -65 -15 -516 -14 -283 0 -516
-2 -517 -5 0 -4 -2 -261 -3 -573 -1 -313 -5 -571 -9 -575 -4 -5 -94 -8 -200
-9 l-192 0 -1 1315 c0 749 4 1319 9 1322 15 10 1638 7 1644 -3z"/>
<path d="M3458 2795 c-2 -1 -28 -5 -59 -8 -143 -16 -298 -106 -374 -219 -17
-23 -32 -45 -35 -48 -11 -11 -44 -88 -62 -145 -24 -73 -35 -268 -20 -340 27
-130 45 -175 106 -265 78 -115 221 -209 361 -235 37 -7 181 -7 215 0 14 2 39
7 55 11 64 12 175 76 234 132 74 72 123 148 158 249 25 71 27 91 28 228 0 130
-3 160 -23 225 -70 224 -253 385 -465 406 -34 3 -74 7 -89 9 -15 1 -29 1 -30
0z"/>
</g>
</svg>
